<svg xmlns="http://www.w3.org/2000/svg" viewBox="0 0 841.9 595.3">
    <g fill="#61DAFB">
        <path d="M666.3 296.5c0-32.5-40.7-63.3-103.1-82.4 14.4-63.6 8-114.2-20.2-130.4-6.5-3.8-14.1-5.6-22.4-5.6v22.3c4.6 0 8.3.9 11.4 2.6 13.6 7.8 19.5 37.5 14.9 75.7-1.1 9.4-2.9 19.3-5.1 29.4-19.6-4.8-41-8.5-63.5-10.9-13.5-18.5-27.5-35.3-41.6-50 32.6-30.3 63.2-46.9 84-46.9V78c-27.5 0-63.5 19.6-99.9 53.6-36.4-33.8-72.4-53.2-99.9-53.2v22.3c20.7 0 51.4 16.5 84 46.6-14 14.7-28 31.4-41.3 49.9-22.6 2.4-43 6.1-62.7 10.9-2.2-10-4-19.9-5.1-29.4-4.6-38.2 1.3-67.9 14.9-75.7 3.1-1.7 6.9-2.6 11.4-2.6V78.1c-8.4 0-16 1.8-22.6 5.6-28.1 16.2-34.4 66.7-19.9 130.1-62.2 19.2-102.7 49.9-102.7 82.3 0 32.5 40.7 63.3 103.1 82.4-14.4 63.6-8 114.2 20.2 130.4 6.5 3.8 14.1 5.6 22.5 5.6 27.5 0 63.5-19.6 99.9-53.6 36.4 33.8 72.4 53.2 99.9 53.2 8.4 0 16-1.8 22.6-5.6 28.1-16.2 34.4-66.7 19.9-130.1 62-19.1 102.5-49.9 102.5-82.3zm-130.2-66.7c-3.7 12.9-8.3 26.2-13.5 39.5-4.1-8-8.4-16-13.1-24-4.6-8-9.5-15.8-14.4-23.4 14.2 2.1 27.9 4.7 41 7.9zm-45.8 106.5c-7.8 13.5-15.8 26.3-24.1 38.2-14.9 1.3-30 2-45.2 2-15.2 0-30.3-.7-45.2-2-8.3-11.9-16.4-24.6-24.1-38.2 7.8-13.5 15.8-26.3 24.1-38.2 14.9-1.3 30-2 45.2-2 15.2 0 30.3.7 45.2 2 8.3 11.9 16.4 24.6 24.1 38.2zM421.2 430c-9.3-9.6-18.6-20.3-27.8-32 9 .4 18.2.7 27.5.7 9.4 0 18.7-.2 27.8-.7-9 11.7-18.3 22.4-27.5 32zm-74.4-58.9c-14.2-2.1-27.9-4.7-41-7.9 3.7-12.9 8.3-26.2 13.5-39.5 4.1 8 8.4 16 13.1 24 4.6 8 9.5 15.8 14.4 23.4zM420.7 163c9.3 9.6 18.6 20.3 27.8 32-9-.4-18.2-.7-27.5-.7-9.4 0-18.7.2-27.8.7 9-11.7 18.3-22.4 27.5-32zm-74.1 58.9c-4.9-9.6-10-19.1-15.2-28.5-13.1-2.4-26.2-4.2-39.2-5.3 4.3 15.8 7.8 31.7 10.4 47.6 13.8-11.3 27.1-22.3 39.8-32.5-3.2-.9-6.5-1.9-9.8-2.8zm-270.6 260.2c-14.6-7.8-20.5-37.5-15.9-75.7 1.1-9.4 2.9-19.3 5.1-29.4 19.6 4.8 41 8.5 63.5 10.9 13.5 18.5 27.5 35.3 41.6 50-32.6 30.3-63.2 46.9-84 46.9-4.5-.1-8.3-1-11.2-2.7zm270.5-110.1c-4.3-15.8-7.8-31.7-10.4-47.6-13.8 11.3-27.1 22.3-39.8 32.5 3.2.9 6.5 1.9 9.8 2.8 4.9 9.6 10 19.1 15.2 28.5 13.1 2.4 26.2 4.2 39.2 5.3zM334.4 241.2c-13.1 2.4-26.2 4.2-39.2 5.3-4.3-15.8-7.8-31.7-10.4-47.6 13.8-11.3 27.1-22.3 39.8-32.5 3.2.9 6.5 1.9 9.8 2.8 4.9 9.6 10 19.1 15.2 28.5zm148.7-28.5c-4.9-9.6-10-19.1-15.2-28.5-13.1-2.4-26.2-4.2-39.2-5.3 4.3 15.8 7.8 31.7 10.4 47.6 13.8-11.3 27.1-22.3 39.8-32.5-3.2-.9-6.5-1.9-9.8-2.8z"></path>
        <ellipse cx="420.9" cy="296.5" rx="45.7" ry="103.1"></ellipse>
    </g>
</svg>
